<svg width="32" height="32" viewBox="0 0 32 32" fill="none" xmlns="http://www.w3.org/2000/svg">
<rect width="32" height="32" rx="16" fill="#030303"/>
<mask id="mask0_408_24" style="mask-type:luminance" maskUnits="userSpaceOnUse" x="6" y="0" width="20" height="32">
<path d="M25.5556 0H6V32H25.5556V0Z" fill="white"/>
</mask>
<g mask="url(#mask0_408_24)">
<path d="M15.7968 2.60711C18.5752 6.13431 20.0584 10.4839 20.0046 14.9471V16.0125L20.9212 16.5703C22.1057 17.2873 22.989 18.3994 23.4102 19.7039C23.0403 19.4316 22.6534 19.1825 22.2517 18.958L19.8073 17.5856L19.368 20.3556C19.3299 20.6004 19.2789 20.8431 19.2152 21.0827H12.3657C12.2638 20.7693 12.1811 20.4559 12.1047 20.13L11.5509 17.6232L9.29738 18.8766C8.92091 19.0871 8.55743 19.3195 8.20884 19.5723C8.63833 18.2828 9.50321 17.1771 10.6597 16.4387L11.5318 15.8809V14.8908C11.5475 10.4456 13.0485 6.12907 15.8032 2.60711H15.7968ZM15.8032 0C15.6603 0.000355556 15.5224 0.0515555 15.4148 0.144178L15.3576 0.194311C11.6868 4.23609 9.64848 9.46258 9.62841 14.8844C8.07071 15.8794 6.91768 17.3816 6.37079 19.1286C5.82391 20.8756 5.91796 22.7562 6.63651 24.4419C7.39346 22.796 8.65883 21.4274 10.2522 20.5311C10.4121 21.2126 10.6249 21.881 10.8888 22.5304C10.9223 22.6552 10.9965 22.7657 11.1 22.845C11.2035 22.9243 11.3306 22.9678 11.4617 22.9691H20.2974C20.4756 22.9691 20.6538 22.7998 20.743 22.5366C21.0006 21.9193 21.1802 21.2731 21.2777 20.6126C22.8742 21.5051 24.1406 22.8748 24.8935 24.5233C25.6554 22.846 25.7733 20.9535 25.2254 19.1971C24.6776 17.4405 23.501 15.9395 21.9143 14.9722C21.9772 9.5184 19.9497 4.2416 16.2361 0.194311C16.1808 0.133422 16.113 0.0846222 16.0374 0.0512C15.9618 0.0176889 15.8798 0.000266667 15.7968 0H15.8032Z" fill="#4EA8DE"/>
<path d="M15.797 14.3642C15.3081 14.3642 14.8301 14.2217 14.4233 13.9546C14.0165 13.6876 13.6991 13.308 13.5111 12.8636C13.3231 12.4192 13.273 11.93 13.367 11.4576C13.461 10.9852 13.695 10.5508 14.0394 10.2091C14.3838 9.86743 14.8232 9.63374 15.3023 9.53756C15.7814 9.44138 16.2786 9.48698 16.7314 9.66867C17.1842 9.85027 17.5723 10.1598 17.8467 10.5583C18.121 10.9567 18.2695 11.4262 18.2733 11.9075C18.2809 12.2194 18.226 12.5298 18.1117 12.8208C17.9975 13.112 17.8261 13.378 17.6073 13.6038C17.3886 13.8296 17.1268 14.0108 16.8369 14.1369C16.5471 14.2632 16.2348 14.3319 15.9179 14.3392C15.8779 14.3455 15.837 14.3455 15.797 14.3392V14.3642Z" fill="#4EA8DE"/>
<path d="M19.2408 24.5295C19.0815 24.5245 18.9228 24.5509 18.774 24.6071C18.6252 24.6632 18.4893 24.748 18.3743 24.8567C18.2593 24.9653 18.1675 25.0953 18.1042 25.2393C18.0409 25.3833 18.0075 25.5383 18.0059 25.6952V29.3928C18.0059 29.7152 18.136 30.0245 18.3675 30.2526C18.5992 30.4806 18.9132 30.6087 19.2408 30.6087C19.5683 30.6087 19.8825 30.4806 20.114 30.2526C20.3457 30.0245 20.4757 29.7152 20.4757 29.3928V25.7454C20.4809 25.589 20.4543 25.4334 20.3976 25.2872C20.341 25.1412 20.2553 25.0077 20.1457 24.8945C20.0361 24.7813 19.9047 24.6908 19.7592 24.6281C19.6137 24.5655 19.4569 24.5319 19.2981 24.5295H19.2408Z" fill="#5E60CE"/>
<path d="M12.3659 24.5295C12.2039 24.5211 12.0419 24.5448 11.8894 24.5992C11.7369 24.6537 11.5971 24.7379 11.4783 24.8466C11.3596 24.9554 11.2642 25.0865 11.198 25.2323C11.1317 25.3781 11.096 25.5355 11.0928 25.6952V29.3929C11.0928 29.7153 11.2229 30.0245 11.4545 30.2525C11.6861 30.4805 12.0002 30.6087 12.3277 30.6087C12.6553 30.6087 12.9694 30.4805 13.201 30.2525C13.4326 30.0245 13.5627 29.7153 13.5627 29.3929V25.7453C13.5678 25.589 13.5412 25.4333 13.4845 25.2872C13.4279 25.1411 13.3422 25.0076 13.2326 24.8945C13.123 24.7813 12.9916 24.6907 12.8461 24.6281C12.7006 24.5655 12.5438 24.532 12.385 24.5295H12.3659Z" fill="#5E60CE"/>
<path d="M15.7076 24.5296C15.5488 24.5262 15.3908 24.5538 15.2428 24.6106C15.0947 24.6673 14.9595 24.7522 14.8448 24.8605C14.7302 24.9688 14.6383 25.0982 14.5744 25.2414C14.5105 25.3846 14.476 25.5388 14.4727 25.6953V30.7904C14.4727 31.1129 14.6028 31.4221 14.8344 31.6501C15.066 31.8781 15.3801 32.0062 15.7076 32.0062C16.0352 32.0062 16.3493 31.8781 16.5809 31.6501C16.8125 31.4221 16.9425 31.1129 16.9425 30.7904V25.7767C16.9477 25.6204 16.9211 25.4647 16.8644 25.3186C16.8078 25.1725 16.7221 25.039 16.6125 24.9258C16.5029 24.8127 16.3715 24.7221 16.226 24.6594C16.0805 24.5968 15.9237 24.5633 15.7649 24.5609L15.7076 24.5296Z" fill="#5E60CE"/>
</g>
</svg>
